<svg width="24" height="23" viewBox="0 0 24 23" fill="none" xmlns="http://www.w3.org/2000/svg">
<path d="M6.61611 22.3157C3.96056 22.3157 1.78484 20.3854 1.78484 18.0088V15.7326C1.78484 15.2751 2.16421 14.8958 2.62168 14.8958C3.07914 14.8958 3.45851 15.2751 3.45851 15.7326C3.45851 17.1273 4.80855 18.1761 6.61611 18.1761C8.42367 18.1761 9.77379 17.1273 9.77379 15.7326C9.77379 15.2751 10.1531 14.8958 10.6106 14.8958C11.0681 14.8958 11.4474 15.2751 11.4474 15.7326V18.0088C11.4474 20.3854 9.28282 22.3157 6.61611 22.3157ZM3.74856 19.1022C4.2395 20.0172 5.34413 20.642 6.61611 20.642C7.8881 20.642 8.99273 20.006 9.48367 19.1022C8.69147 19.582 7.70958 19.861 6.61611 19.861C5.52265 19.861 4.54076 19.582 3.74856 19.1022Z" fill="#FB5857"/>
<path d="M6.61611 16.7923C4.78624 16.7923 3.14608 15.9555 2.33156 14.6277C1.97451 14.0475 1.78484 13.3669 1.78484 12.6751C1.78484 11.5035 2.29809 10.4101 3.23534 9.59553C5.0429 8.01115 8.1559 8.01121 9.9746 9.58449C10.9119 10.4102 11.4363 11.5035 11.4363 12.6751C11.4363 13.3669 11.2466 14.0475 10.8895 14.6277C10.0862 15.9555 8.44599 16.7923 6.61611 16.7923ZM6.61611 10.0418C5.74581 10.0418 4.94247 10.3319 4.33995 10.8564C3.7709 11.3473 3.45851 11.9945 3.45851 12.6751C3.45851 13.0656 3.55888 13.4228 3.75972 13.7575C4.27298 14.6055 5.36644 15.1298 6.61611 15.1298C7.86578 15.1298 8.95924 14.6055 9.46133 13.7687C9.66217 13.4451 9.76262 13.0768 9.76262 12.6862C9.76262 12.0056 9.45022 11.3585 8.88118 10.8564C8.28981 10.3319 7.48642 10.0418 6.61611 10.0418Z" fill="#FB5857"/>
<path d="M6.61611 19.8609C3.86014 19.8609 1.78484 18.0868 1.78484 15.7436V12.6752C1.78484 10.2986 3.94941 8.36835 6.61611 8.36835C7.87694 8.36835 9.082 8.8035 9.98576 9.58454C10.923 10.4102 11.4474 11.5037 11.4474 12.6752V15.7436C11.4474 18.0868 9.37208 19.8609 6.61611 19.8609ZM6.61611 10.042C4.8755 10.042 3.45851 11.2247 3.45851 12.6752V15.7436C3.45851 17.1384 4.80855 18.1872 6.61611 18.1872C8.42367 18.1872 9.77379 17.1384 9.77379 15.7436V12.6752C9.77379 11.9946 9.46139 11.3475 8.89234 10.8454C8.28982 10.3321 7.48642 10.042 6.61611 10.042Z" fill="#FB5857"/>
<path d="M19.8605 13.4454C18.1757 13.4454 16.7475 12.1957 16.6136 10.589C16.5243 9.66289 16.8591 8.75911 17.5285 8.1008C18.0864 7.52059 18.8786 7.19702 19.7154 7.19702H22.0474C23.152 7.23049 24 8.1008 24 9.17195V11.4704C24 12.5416 23.152 13.4119 22.0809 13.4454H19.8605ZM22.0139 8.87069H19.7266C19.3361 8.87069 18.979 9.01574 18.7224 9.28352C18.3988 9.59594 18.2426 10.0199 18.2872 10.4439C18.343 11.1803 19.0571 11.7717 19.8605 11.7717H22.0474C22.1925 11.7717 22.3264 11.6378 22.3264 11.4704V9.17195C22.3264 9.00458 22.1925 8.88184 22.0139 8.87069Z" fill="#FB5857"/>
<path d="M16.4688 20.6419H13.6794C13.2219 20.6419 12.8426 20.2625 12.8426 19.805C12.8426 19.3476 13.2219 18.9682 13.6794 18.9682H16.4688C19.3475 18.9682 21.2109 17.1049 21.2109 14.2262V13.4451H19.8608C18.176 13.4451 16.7478 12.1954 16.6139 10.5887C16.5246 9.66263 16.8595 8.75885 17.5289 8.10054C18.0868 7.52035 18.8789 7.19677 19.7157 7.19677H21.1997V6.41572C21.1997 3.8048 19.6712 2.00838 17.1942 1.71827C16.9264 1.67364 16.692 1.67367 16.4577 1.67367H6.41572C6.14793 1.67367 5.89129 1.69597 5.63466 1.72944C3.17995 2.04186 1.67367 3.82712 1.67367 6.41572V8.64727C1.67367 9.10474 1.2943 9.48411 0.836833 9.48411C0.379364 9.48411 0 9.10474 0 8.64727V6.41572C0 2.97913 2.12002 0.490953 5.41156 0.0781155C5.71282 0.0334844 6.05867 0 6.41572 0H16.4577C16.7255 0 17.0714 0.0111577 17.4284 0.0669466C20.7199 0.446311 22.8734 2.94565 22.8734 6.41572V8.03361C22.8734 8.49106 22.494 8.87043 22.0366 8.87043H19.7157C19.3252 8.87043 18.9683 9.01548 18.7117 9.28327C18.3881 9.59568 18.2318 10.0197 18.2764 10.4437C18.3322 11.1801 19.0464 11.7714 19.8498 11.7714H22.0477C22.5052 11.7714 22.8846 12.1508 22.8846 12.6083V14.2262C22.8846 18.0644 20.3071 20.6419 16.4688 20.6419Z" fill="#FB5857"/>
</svg>
