<svg width="69" height="60" viewBox="0 0 69 60" fill="none" xmlns="http://www.w3.org/2000/svg">
<path d="M36.0283 14.7458L36.1205 14.7733L36.1245 14.7688C36.5622 14.8481 36.9963 14.586 37.1249 14.1519C38.2966 10.2152 41.9877 7.46504 46.1001 7.46504C46.587 7.46504 46.9818 7.07016 46.9818 6.5833C46.9818 6.09643 46.5869 5.70156 46.1001 5.70156C41.0459 5.70156 36.7987 9.06665 35.435 13.6493C35.2958 14.1162 35.5618 14.6067 36.0283 14.7458Z" fill="#FB5857" stroke="#F9FFF9" stroke-width="0.3"/>
<path d="M56.3438 42.4384H51.9534C51.5494 42.4384 51.2217 42.1107 51.2217 41.7067C51.2217 41.3027 51.5494 40.9749 51.9534 40.9749H56.3438C62.3956 40.9749 67.3197 36.0509 67.3197 29.999C67.3197 23.9471 62.3956 19.023 56.3438 19.023H56.2382C56.026 19.023 55.8242 18.9311 55.6852 18.7706C55.5462 18.6101 55.4834 18.3974 55.5138 18.1873C55.5791 17.7315 55.612 17.2737 55.612 16.8279C55.612 11.5829 51.3444 7.31531 46.0995 7.31531C44.059 7.31531 42.1131 7.95296 40.4719 9.15978C40.1112 9.42478 39.599 9.30718 39.3905 8.91047C34.7425 0.0596991 22.6023 -1.12887 16.3082 6.57053C13.6568 9.81417 12.615 14.0336 13.4498 18.146C13.5418 18.6002 13.1942 19.0236 12.7327 19.0236H12.4395C6.3876 19.0236 1.46353 23.9477 1.46353 29.9996C1.46353 36.0514 6.3876 40.9755 12.4395 40.9755H16.8298C17.2338 40.9755 17.5615 41.3032 17.5615 41.7072C17.5615 42.1113 17.2338 42.439 16.8298 42.439H12.4395C5.5805 42.439 0 36.8585 0 29.9995C0 23.3329 5.27155 17.8742 11.8651 17.5731C11.2457 13.3066 12.4301 9.00295 15.1751 5.64437C21.9138 -2.5996 34.828 -1.67556 40.2871 7.51707C42.0287 6.42522 44.0215 5.85244 46.0992 5.85244C52.4538 5.85244 57.4892 11.261 57.0486 17.58C63.5813 17.9464 68.7829 23.3763 68.7829 29.999C68.7829 36.8585 63.2027 42.4384 56.3438 42.4384Z" fill="#FB5857"/>
<path d="M15.85 41.2935C15.85 51.4634 24.1237 59.737 34.2935 59.737C44.4634 59.737 52.737 51.4633 52.737 41.2935C52.737 31.1235 44.4634 22.85 34.2935 22.85C24.1235 22.85 15.85 31.1237 15.85 41.2935ZM17.6138 41.2935C17.6138 32.0966 25.0964 24.6138 34.2935 24.6138C43.4904 24.6138 50.9732 32.0964 50.9732 41.2935C50.9732 50.4904 43.4904 57.9732 34.2935 57.9732C25.0966 57.9732 17.6138 50.4905 17.6138 41.2935Z" fill="#FB5857" stroke="#F9FFF9" stroke-width="0.3"/>
<path d="M34.6279 49.1934C34.3321 49.1934 34.0922 48.9534 34.0922 48.6577V34.7291C34.0922 34.4333 34.3321 34.1934 34.6279 34.1934C34.9237 34.1934 35.1636 34.4333 35.1636 34.7291V48.6577C35.1636 48.9538 34.9237 49.1934 34.6279 49.1934Z" fill="#FB5857"/>
<path d="M38.9135 39.552C38.7765 39.552 38.6392 39.4996 38.5347 39.3951L34.6279 35.4882L30.721 39.3951C30.5121 39.6044 30.1727 39.6044 29.9634 39.3951C29.7541 39.1858 29.7541 38.8468 29.9634 38.6374L34.249 34.3518C34.4579 34.1425 34.7974 34.1425 35.0067 34.3518L39.2923 38.6374C39.5016 38.8468 39.5016 39.1858 39.2923 39.3951C39.1878 39.4999 39.0505 39.552 38.9135 39.552H38.9135Z" fill="#FB5857"/>
</svg>
