<svg width="24" height="25" viewBox="0 0 24 25" fill="none" xmlns="http://www.w3.org/2000/svg">
<path d="M16.2141 2.22431V6.67294H14.4581V2.22431C14.4581 1.90823 14.1771 1.75604 13.9898 1.75604C13.9313 1.75604 13.8727 1.76774 13.8142 1.79116L4.53063 5.29153C3.91016 5.52566 3.51212 6.11101 3.51212 6.77831V7.56267C2.44679 8.35874 1.75609 9.63482 1.75609 11.0748V6.77831C1.75609 5.38518 2.61069 4.14425 3.91016 3.65256L13.2055 0.140483C13.463 0.0468275 13.7323 0 13.9898 0C15.1605 0 16.2141 0.94826 16.2141 2.22431Z" fill="#FB5857"/>
<path d="M23.9999 14.5742V15.7449C23.9999 16.061 23.7541 16.3185 23.4263 16.3302H21.7171C21.0966 16.3302 20.5347 15.8736 20.4879 15.2649C20.4527 14.902 20.5932 14.5625 20.8274 14.3283C21.0381 14.1059 21.3308 13.9888 21.6468 13.9888H23.4146C23.7541 14.0005 23.9999 14.2581 23.9999 14.5742Z" fill="#FB5857"/>
<path d="M4.68277 15.1595C3.58232 15.1595 2.56381 15.5459 1.75604 16.1898C0.679001 17.0444 0 18.3672 0 19.8423C0 20.7203 0.245845 21.5515 0.679001 22.2539C1.48678 23.6119 2.97356 24.5251 4.68277 24.5251C5.86517 24.5251 6.9422 24.0919 7.76169 23.3544C8.1246 23.05 8.44069 22.6754 8.68653 22.2539C9.11969 21.5515 9.36553 20.7203 9.36553 19.8423C9.36553 17.2551 7.27 15.1595 4.68277 15.1595ZM2.83307 19.2101C2.49357 18.8706 2.49357 18.3087 2.83307 17.9692C3.18428 17.6297 3.73451 17.6297 4.08571 17.9692L4.69447 18.5897L5.27982 17.9926C5.63103 17.6531 6.18125 17.6531 6.53246 17.9926C6.87196 18.3438 6.87196 18.8941 6.53246 19.2453L5.93541 19.8306L6.55587 20.4394C6.89537 20.7906 6.89537 21.3408 6.55587 21.692C6.38027 21.8559 6.15784 21.9379 5.93541 21.9379C5.71298 21.9379 5.49054 21.8559 5.31494 21.692L4.69447 21.0715L4.05059 21.7154C3.87499 21.891 3.65256 21.973 3.43013 21.973C3.2077 21.973 2.98526 21.891 2.80966 21.7154C2.47016 21.3759 2.47016 20.814 2.80966 20.4745L3.45354 19.8306L2.83307 19.2101Z" fill="#FB5857"/>
<path d="M21.6344 12.7596H22.8285C23.4724 12.7596 23.9992 12.2328 23.9992 11.5889V11.0738C23.9992 8.65047 22.0208 6.672 19.5974 6.672H6.15789C5.1628 6.672 4.24966 6.99979 3.51212 7.56172C2.44679 8.35779 1.75609 9.63385 1.75609 11.0738V13.1576C1.75609 13.6025 2.22436 13.8835 2.64581 13.743C3.3014 13.5205 3.99211 13.4035 4.68282 13.4035C8.23001 13.4035 11.1216 16.2951 11.1216 19.8423C11.1216 20.6852 10.8992 21.61 10.548 22.4295C10.3607 22.851 10.6533 23.3544 11.1099 23.3544H19.5974C22.0208 23.3544 23.9992 21.3759 23.9992 18.9526V18.7301C23.9992 18.0862 23.4724 17.5594 22.8285 17.5594H21.81C20.6862 17.5594 19.6091 16.8687 19.3165 15.78C19.0823 14.8903 19.3633 14.0239 19.9486 13.462C20.3818 13.0171 20.9788 12.7596 21.6344 12.7596ZM15.219 12.5255H9.36558C8.8856 12.5255 8.48756 12.1274 8.48756 11.6474C8.48756 11.1675 8.8856 10.7694 9.36558 10.7694H15.219C15.699 10.7694 16.0971 11.1675 16.0971 11.6474C16.0971 12.1274 15.699 12.5255 15.219 12.5255Z" fill="#FB5857"/>
</svg>
